# xmcd
#
# Track frame offsets: 
#        225
#        12154
#        25064
#        35408
#        54847
#        66948
#        79080
#        95041
#        111275
#        120586
#        131132
#        142648
#        153877
#        163084
#        174336
#        188587
#        197225
#        205603
#        216379
#        225705
#        234895
#        247133
#        261935
#        279792
#        291456
#
# Disc length: 4019 seconds
#
# Revision: 0
# Processed by: cddbd v1.4PL0 Copyright (c) Steve Scherf et al.
# Submitted via: ExactAudioCopy v0.90b4
#
DISCID=5d0fb019
DTITLE=Various Artist - Stoleti trampingu 4
DYEAR=1999
DGENRE=Country
TTITLE0=Wabi Danek - Rosa na kolejich
TTITLE1=Spojene trampske osady Praha - Velrybarska vyprava
TTITLE2=Kapitan Kid - No to se vi
TTITLE3=Brontosauri - Az budes velky
TTITLE4=Settlers Club - Reka huci
TTITLE5=Waldemar Matuska - Stary kovboj
TTITLE6=Wabi and Miki Ryvolove - Ze vsech chlapu nejstastnejsi chlap
TTITLE7=Josef Braun Burt - Paroplavecka
TTITLE8=Eva Olmerova - Svet ticha
TTITLE9=Zlaty Orel - Stara Pacificka
TTITLE10=Spojene trampske osady Praha - Pulnocni vlak 
TTITLE11=KTO - Zradny banjo
TTITLE12=Spojene trampske osady Praha - Kapkami si dest
TTITLE13=Nezmari - Sedmnact dnu
TTITLE14=Wabi Danek - Outsider waltz
TTITLE15=Rackove - Prijd na chvili
TTITLE16=Divci sbor z Hadi ricky - O luno ma
TTITLE17=Miki Ryvola - Posledni mile
TTITLE18=Sestry Havelkovy - Vzpominka na svatojanske proudy
TTITLE19=Spojene trampske osady Brno - Vandrak
TTITLE20=Hana Sykorova - Uz jen chvili
TTITLE21=Karabina and Rowers - San Ariano
TTITLE22=Zalman and spol. - Kourovej signal
TTITLE23=Spojene trampske osady Praha - Rodne udoli
TTITLE24=Brontosauri - Vlajka
EXTD=
EXTT0=
EXTT1=
EXTT2=
EXTT3=
EXTT4=
EXTT5=
EXTT6=
EXTT7=
EXTT8=
EXTT9=
EXTT10=
EXTT11=
EXTT12=
EXTT13=
EXTT14=
EXTT15=
EXTT16=
EXTT17=
EXTT18=
EXTT19=
EXTT20=
EXTT21=
EXTT22=
EXTT23=
EXTT24=
PLAYORDER=
